<?xml version="1.0" encoding="iso-8859-1"?>
<!-- Generator: Adobe Illustrator 18.1.1, SVG Export Plug-In . SVG Version: 6.00 Build 0)  -->
<svg xmlns="http://www.w3.org/2000/svg" xmlns:xlink="http://www.w3.org/1999/xlink" version="1.1" id="Capa_1" x="0px" y="0px" viewBox="0 0 15.551 15.551" style="enable-background:new 0 0 15.551 15.551;" xml:space="preserve" width="512px" height="512px">
<g>
	<g>
		<path d="M8.63,15.551H6.412c-1.747,0-2.191-0.896-2.29-1.514c-0.758-0.23-1.198-0.796-1.232-1.598    c-0.209-0.114-0.385-0.258-0.524-0.432C2.117,11.712,1.99,11.335,1.99,10.89c0-0.221,0.044-0.444,0.132-0.67    c-0.33-0.471-0.497-0.99-0.497-1.551c0-0.596,0.232-1.438,1.338-2.061c0.653-0.363,1.471-0.575,2.439-0.633    C5.378,5.932,5.35,5.886,5.319,5.835C5.246,5.717,5.154,5.567,5.054,5.372L4.888,5.085C4.403,4.16,4.365,2.672,4.365,2.238    C4.365,1.054,5.391,0,6.199,0C6.53,0,6.808,0.166,6.963,0.455C7.033,0.585,7.12,0.793,7.24,1.08    c0.514,1.227,1.718,4.099,3.695,5.41c0.425,0.256,1.157,0.698,1.321,0.808c0.067,0.022,0.264,0.053,0.478,0.053h0.58    c0.515,0,0.528,0.381,0.574,1.642c0.024,0.688,0.038,1.594,0.038,2.428c0,0.61-0.008,1.133-0.021,1.511    c-0.023,0.604-0.042,1.083-0.54,1.083h-1.278c-0.623,0.639-1.287,0.91-1.932,1.175c-0.191,0.079-0.388,0.159-0.586,0.251    c-0.093,0.042-0.188,0.066-0.283,0.075C8.989,15.542,8.782,15.551,8.63,15.551z" fill="#91DC5A"/>
	</g>
</g>
<g>
</g>
<g>
</g>
<g>
</g>
<g>
</g>
<g>
</g>
<g>
</g>
<g>
</g>
<g>
</g>
<g>
</g>
<g>
</g>
<g>
</g>
<g>
</g>
<g>
</g>
<g>
</g>
<g>
</g>
</svg>
